<?xml version="1.0" encoding="UTF-8"?>
<svg id="Layer_1" data-name="Layer 1" xmlns="http://www.w3.org/2000/svg" xmlns:xlink="http://www.w3.org/1999/xlink" viewBox="0 0 139.45 110.16">
  <defs>
    <style>
      .cls-1 {
        fill: url(#linear-gradient-2);
      }

      .cls-2 {
        fill: url(#linear-gradient-4);
      }

      .cls-3 {
        fill: url(#linear-gradient-3);
      }

      .cls-4 {
        fill: url(#linear-gradient-5);
      }

      .cls-5 {
        fill: url(#linear-gradient-7);
      }

      .cls-6 {
        fill: url(#linear-gradient-6);
      }

      .cls-7 {
        fill: url(#linear-gradient);
      }

      .cls-8 {
        fill: url(#New_Gradient_Swatch_4);
      }
    </style>
    <linearGradient id="linear-gradient" x1="37.21" y1="53.31" x2="118.82" y2="53.31" gradientUnits="userSpaceOnUse">
      <stop offset="0" stop-color="#e5a31e"/>
      <stop offset=".11" stop-color="#e5a626"/>
      <stop offset=".29" stop-color="#e8b13c"/>
      <stop offset=".51" stop-color="#ecc260"/>
      <stop offset=".75" stop-color="#f2d992"/>
      <stop offset=".78" stop-color="#f3dd99"/>
    </linearGradient>
    <linearGradient id="linear-gradient-2" x1="0" y1="60.91" x2="90.28" y2="60.91" gradientUnits="userSpaceOnUse">
      <stop offset="0" stop-color="#e5a31e"/>
      <stop offset=".05" stop-color="#e7af37"/>
      <stop offset=".12" stop-color="#ebbf5a"/>
      <stop offset=".2" stop-color="#efcc75"/>
      <stop offset=".28" stop-color="#f1d589"/>
      <stop offset=".36" stop-color="#f2db95"/>
      <stop offset=".44" stop-color="#f3dd99"/>
      <stop offset=".66" stop-color="#f1db97"/>
      <stop offset=".74" stop-color="#edd491"/>
      <stop offset=".8" stop-color="#e5c888"/>
      <stop offset=".85" stop-color="#dab77a"/>
      <stop offset=".89" stop-color="#cba168"/>
      <stop offset=".92" stop-color="#ba8652"/>
      <stop offset=".95" stop-color="#a46637"/>
      <stop offset=".98" stop-color="#8c4119"/>
      <stop offset="1" stop-color="#782200"/>
    </linearGradient>
    <linearGradient id="linear-gradient-3" x1="113.77" y1="24.22" x2="137" y2="24.22" gradientUnits="userSpaceOnUse">
      <stop offset="0" stop-color="#e5a31e"/>
      <stop offset=".09" stop-color="#e5a421"/>
      <stop offset=".18" stop-color="#e6aa2d"/>
      <stop offset=".27" stop-color="#e8b340"/>
      <stop offset=".36" stop-color="#ebbf5a"/>
      <stop offset=".44" stop-color="#efcf7d"/>
      <stop offset=".5" stop-color="#f3dd99"/>
      <stop offset=".59" stop-color="#f0d996"/>
      <stop offset=".67" stop-color="#eacf8e"/>
      <stop offset=".74" stop-color="#dfbf80"/>
      <stop offset=".8" stop-color="#cfa76d"/>
      <stop offset=".86" stop-color="#bb8854"/>
      <stop offset=".92" stop-color="#a36335"/>
      <stop offset=".97" stop-color="#863711"/>
      <stop offset="1" stop-color="#782200"/>
    </linearGradient>
    <linearGradient id="linear-gradient-4" x1="127.31" y1="11.35" x2="136.48" y2="11.35" gradientUnits="userSpaceOnUse">
      <stop offset="0" stop-color="#e5a31e"/>
      <stop offset=".09" stop-color="#e5a421"/>
      <stop offset=".18" stop-color="#e6aa2d"/>
      <stop offset=".27" stop-color="#e8b340"/>
      <stop offset=".36" stop-color="#ebbf5a"/>
      <stop offset=".44" stop-color="#efcf7d"/>
      <stop offset=".5" stop-color="#f3dd99"/>
      <stop offset=".56" stop-color="#ead08e"/>
      <stop offset=".66" stop-color="#d5af73"/>
      <stop offset=".8" stop-color="#b17947"/>
      <stop offset=".97" stop-color="#81300b"/>
      <stop offset="1" stop-color="#782200"/>
    </linearGradient>
    <linearGradient id="linear-gradient-5" x1="98.06" y1="14.11" x2="127.31" y2="14.11" gradientUnits="userSpaceOnUse">
      <stop offset="0" stop-color="#e5a31e"/>
      <stop offset=".09" stop-color="#e5a421"/>
      <stop offset=".18" stop-color="#e6aa2d"/>
      <stop offset=".27" stop-color="#e8b340"/>
      <stop offset=".36" stop-color="#ebbf5a"/>
      <stop offset=".44" stop-color="#efcf7d"/>
      <stop offset=".5" stop-color="#f3dd99"/>
      <stop offset=".7" stop-color="#f1db97"/>
      <stop offset=".77" stop-color="#edd491"/>
      <stop offset=".82" stop-color="#e5c888"/>
      <stop offset=".86" stop-color="#dab77a"/>
      <stop offset=".9" stop-color="#cba168"/>
      <stop offset=".93" stop-color="#ba8652"/>
      <stop offset=".96" stop-color="#a46637"/>
      <stop offset=".98" stop-color="#8c4119"/>
      <stop offset="1" stop-color="#782200"/>
    </linearGradient>
    <linearGradient id="linear-gradient-6" x1="86.01" y1="10.93" x2="97.45" y2="10.93" gradientUnits="userSpaceOnUse">
      <stop offset="0" stop-color="#e5a31e"/>
      <stop offset=".09" stop-color="#e5a421"/>
      <stop offset=".18" stop-color="#e6aa2d"/>
      <stop offset=".27" stop-color="#e8b340"/>
      <stop offset=".36" stop-color="#ebbf5a"/>
      <stop offset=".44" stop-color="#efcf7d"/>
      <stop offset=".5" stop-color="#f3dd99"/>
      <stop offset=".56" stop-color="#ead08e"/>
      <stop offset=".66" stop-color="#d5af73"/>
      <stop offset=".8" stop-color="#b17947"/>
      <stop offset=".97" stop-color="#81300b"/>
      <stop offset="1" stop-color="#782200"/>
    </linearGradient>
    <linearGradient id="linear-gradient-7" x1="88.1" y1="3.78" x2="101.64" y2="3.78" gradientUnits="userSpaceOnUse">
      <stop offset="0" stop-color="#e5a31e"/>
      <stop offset=".09" stop-color="#e5a421"/>
      <stop offset=".18" stop-color="#e6aa2d"/>
      <stop offset=".27" stop-color="#e8b340"/>
      <stop offset=".36" stop-color="#ebbf5a"/>
      <stop offset=".44" stop-color="#efcf7d"/>
      <stop offset=".5" stop-color="#f3dd99"/>
      <stop offset=".56" stop-color="#ead08e"/>
      <stop offset=".66" stop-color="#d5af73"/>
      <stop offset=".8" stop-color="#b17947"/>
      <stop offset=".97" stop-color="#81300b"/>
      <stop offset="1" stop-color="#782200"/>
    </linearGradient>
    <radialGradient id="New_Gradient_Swatch_4" data-name="New Gradient Swatch 4" cx="59.69" cy="59.06" fx="59.69" fy="59.06" r="17.34" gradientUnits="userSpaceOnUse">
      <stop offset="0" stop-color="#fffeee"/>
      <stop offset=".28" stop-color="#f3f3e9"/>
      <stop offset=".75" stop-color="#d7dade"/>
      <stop offset=".88" stop-color="#dcd8d4"/>
    </radialGradient>
  </defs>
  <path class="cls-7" d="M37.21,7.68c.02-1.33,19.59-5.94,39.63,0,26.57,7.88,36.59,29.2,37.56,31.36,7.46,16.66,6.15,39.06-8.96,52.26-2.58,2.26-9.72,7.84-20.67,9.85-18.35,3.37-35.2-5.53-34.8-6.87.21-.71,5.25,1.29,13.09.3,11.8-1.49,22.57-8.84,28.33-17.96,4.88-7.73,5.04-14.96,5.06-18.46.08-10.22-4.17-17.62-6.72-21.95-2.01-3.4-7.66-12.7-19.69-19.59-1.05-.6-5.69-3.21-12.49-5.36-11.74-3.71-20.34-3.01-20.33-3.58Z"/>
  <path class="cls-1" d="M69.33,19.85c-.21,1-5.94-.64-13.23.62-8.51,1.47-14.28,6.09-16.83,8.04-2.32,1.78-13.51,10.71-15.51,25.11-3.03,21.88,17.39,37.08,21.54,40.16,4.26,3.17,11.2,8.34,21.54,9.79,12.25,1.72,23.08-2.63,23.43-1.72.26.68-5.53,3.41-12.26,5.28-4.56,1.27-22,6.12-40.81,0-3.86-1.26-32.26-12.13-36.87-40.35,0,0-4.21-25.75,17.13-45.72,5.06-4.74,14.05-9.05,18.96-9.05h0c4.82-.76,9.21-.11,11.76.27.94.14,1.82.3,2.64.47,2.61.55,4.61,1.17,5.84,1.59,5.02,1.68,12.91,4.33,12.66,5.51Z"/>
  <polygon class="cls-3" points="113.77 31.56 137 19.68 127.48 16.88 113.77 31.56"/>
  <polygon class="cls-2" points="127.31 15.51 136.48 17.33 128.27 5.37 127.31 15.51"/>
  <polygon class="cls-4" points="110.19 28.23 126.26 16.88 119.19 7.72 127.31 5.9 103.91 0 109.67 4.71 98.84 9.16 98.06 14.11 104.34 22.1 101.46 10.9 121.37 15.82 110.19 28.23"/>
  <polygon class="cls-6" points="86.01 6.73 96.31 15.13 97.45 8.85 86.01 6.73"/>
  <polygon class="cls-5" points="88.1 5.37 97.45 7.57 101.64 0 88.1 5.37"/>
  <path class="cls-8" d="M41.37,59.06c0-1.14,7.9-.15,12.91-4.26,5.36-4.4,4.3-12.04,5.66-12.03,1.34.02.07,7.35,5.11,11.79,4.9,4.31,12.96,3.4,12.97,4.67,0,1.25-7.76.42-12.7,4.65-5.1,4.36-4.12,11.48-5.5,11.46-1.4-.01-.19-7.32-5.26-11.73-4.98-4.33-13.19-3.4-13.18-4.56Z"/>
</svg>